<svg width="5553" height="595" viewBox="0 0 5553 595" fill="none" xmlns="http://www.w3.org/2000/svg">
<g clip-path="url(#clip0_45_1807)">
<mask id="mask0_45_1807" style="mask-type:luminance" maskUnits="userSpaceOnUse" x="17" y="66" width="1748" height="469">
<path d="M1764.95 66.9004H17.8276V534.909H1764.95V66.9004Z" fill="white"/>
</mask>
<g mask="url(#mask0_45_1807)">
<path d="M136.27 289.638C149.344 289.638 159.942 278.564 159.942 264.904C159.942 251.243 149.344 240.169 136.27 240.169C123.196 240.169 112.598 251.243 112.598 264.904C112.598 278.564 123.196 289.638 136.27 289.638Z" fill="white"/>
<path d="M207.327 289.638C220.401 289.638 231 278.564 231 264.904C231 251.243 220.401 240.169 207.327 240.169C194.253 240.169 183.655 251.243 183.655 264.904C183.655 278.564 194.253 289.638 207.327 289.638Z" fill="white"/>
<path d="M278.384 289.638C291.457 289.638 302.056 278.564 302.056 264.904C302.056 251.243 291.457 240.169 278.384 240.169C265.311 240.169 254.712 251.243 254.712 264.904C254.712 278.564 265.311 289.638 278.384 289.638Z" fill="white"/>
<path d="M341.334 124.883C307.001 89.0514 259.658 66.9004 207.326 66.9004C154.997 66.9004 107.612 89.0514 73.3195 124.883C39.0678 160.714 17.8276 210.225 17.8276 264.904C17.8276 319.582 39.0678 369.094 73.3195 404.925L190.991 527.878C200.031 537.323 214.664 537.323 223.662 527.878L341.334 404.925C375.587 369.094 396.827 319.582 396.827 264.904C396.827 210.225 375.587 160.714 341.334 124.883ZM207.326 428.77C120.704 428.77 50.458 355.413 50.458 264.861C50.458 174.31 120.704 100.995 207.326 100.995C293.95 100.995 364.196 174.352 364.196 264.904C364.196 355.457 293.991 428.813 207.326 428.813V428.77Z" fill="white"/>
<path d="M674.082 173.186C695.567 184.749 712.186 201.224 723.9 222.613C735.615 244.001 741.491 268.82 741.491 297.072C741.491 325.321 735.615 350.013 723.9 371.149C712.186 392.283 695.567 408.589 674.082 420.194C652.559 431.756 627.671 437.559 599.338 437.559H505.095V155.821H599.338C627.671 155.821 652.559 161.624 674.082 173.186ZM663.099 365.302C678.541 349.167 686.284 326.421 686.284 297.113C686.284 267.805 678.541 244.849 663.099 228.289C647.655 211.771 625.766 203.469 597.432 203.469H559.207V389.529H597.432C625.766 389.529 647.655 381.439 663.099 365.302Z" fill="white"/>
<path d="M968.647 213.974V437.56H914.21V409.31C907.238 419.009 898.199 426.591 886.971 432.095C875.782 437.602 863.622 440.356 850.49 440.356C833.748 440.356 818.953 436.671 806.063 429.258C793.174 421.846 783.08 410.961 775.743 396.561C768.407 382.161 764.719 365.008 764.719 345.101V213.932H818.79V337.053C818.79 354.8 823.048 368.48 831.56 378.01C840.071 387.582 851.624 392.368 866.339 392.368C881.052 392.368 892.97 387.582 901.481 378.01C909.994 368.48 914.21 354.8 914.21 337.053V213.932H968.647V213.974Z" fill="white"/>
<path d="M1087.78 220.836C1098.97 214.101 1111.78 210.755 1126.21 210.755V270.092H1111.9C1094.91 270.092 1082.06 274.286 1073.47 282.588C1064.84 290.931 1060.54 305.458 1060.54 326.169V437.56H1006.47V213.974H1060.54V248.704C1067.47 236.846 1076.55 227.57 1087.78 220.836Z" fill="white"/>
<path d="M1344.48 342.688H1188.02C1189.32 358.824 1194.71 371.489 1204.23 380.636C1213.76 389.784 1225.47 394.36 1239.38 394.36C1259.48 394.36 1273.75 385.338 1282.26 367.295H1340.59C1334.43 388.81 1322.56 406.516 1305.04 420.365C1287.53 434.214 1266.05 441.161 1240.55 441.161C1219.96 441.161 1201.48 436.375 1185.1 426.845C1168.73 417.273 1156 403.762 1146.84 386.271C1137.68 368.778 1133.14 348.574 1133.14 325.703C1133.14 302.834 1137.64 282.248 1146.68 264.757C1155.67 247.265 1168.32 233.797 1184.53 224.394C1200.75 214.991 1219.44 210.248 1240.55 210.248C1261.67 210.248 1279.1 214.822 1295.19 223.97C1311.29 233.118 1323.77 246.122 1332.69 262.936C1341.57 279.75 1346.03 299.063 1346.03 320.875C1346.03 328.965 1345.5 336.208 1344.48 342.645V342.688ZM1290.01 304.781C1289.76 290.253 1284.74 278.607 1274.93 269.882C1265.12 261.157 1253.16 256.753 1239.01 256.753C1225.64 256.753 1214.33 260.988 1205.21 269.457C1196.05 277.928 1190.45 289.702 1188.39 304.781H1289.97H1290.01Z" fill="white"/>
<path d="M1404.72 431.29C1390.82 424.726 1379.79 415.747 1371.68 404.439C1363.58 393.13 1359.12 380.636 1358.35 366.914H1412.79C1413.8 375.511 1417.85 382.67 1424.95 388.302C1432.04 393.978 1440.84 396.773 1451.41 396.773C1461.99 396.773 1469.78 394.613 1475.57 390.293C1481.37 386.014 1484.25 380.466 1484.25 373.774C1484.25 366.489 1480.72 361.069 1473.63 357.426C1466.53 353.783 1455.27 349.844 1439.82 345.524C1423.85 341.501 1410.8 337.309 1400.63 332.989C1390.45 328.71 1381.7 322.102 1374.36 313.208C1367.02 304.314 1363.33 292.371 1363.33 277.292C1363.33 264.926 1366.74 253.616 1373.55 243.41C1380.36 233.202 1390.17 225.113 1402.89 219.183C1415.62 213.254 1430.66 210.289 1447.89 210.289C1473.38 210.289 1493.73 216.939 1508.93 230.281C1524.13 243.579 1532.48 261.536 1534.03 284.154H1482.26C1481.49 275.26 1477.97 268.229 1471.64 262.976C1465.36 257.726 1456.89 255.099 1446.35 255.099C1436.54 255.099 1429.04 256.963 1423.77 260.732C1418.5 264.501 1415.83 269.754 1415.83 276.487C1415.83 284.028 1419.43 289.745 1426.65 293.642C1433.86 297.537 1445.05 301.519 1460.25 305.542C1475.69 309.567 1488.46 313.759 1498.47 318.038C1508.53 322.358 1517.2 329.007 1524.54 338.029C1531.88 347.049 1535.69 358.951 1535.93 373.774C1535.93 386.693 1532.52 398.254 1525.72 408.462C1518.86 418.712 1509.1 426.717 1496.37 432.477C1483.64 438.28 1468.76 441.16 1451.74 441.16C1434.72 441.16 1418.5 437.855 1404.6 431.29H1404.72Z" fill="white"/>
<path d="M1599.81 431.29C1585.91 424.726 1574.88 415.747 1566.78 404.439C1558.67 393.13 1554.21 380.636 1553.44 366.914H1607.88C1608.89 375.511 1612.95 382.67 1620.04 388.302C1627.13 393.978 1635.93 396.773 1646.51 396.773C1657.09 396.773 1664.87 394.613 1670.67 390.293C1676.46 386.014 1679.34 380.466 1679.34 373.774C1679.34 366.489 1675.81 361.069 1668.72 357.426C1661.63 353.783 1650.36 349.844 1634.91 345.524C1618.94 341.501 1605.89 337.309 1595.72 332.989C1585.54 328.71 1576.79 322.102 1569.45 313.208C1562.11 304.314 1558.43 292.371 1558.43 277.292C1558.43 264.926 1561.83 253.616 1568.64 243.41C1575.45 233.202 1585.26 225.113 1597.99 219.183C1610.72 213.254 1625.75 210.289 1642.98 210.289C1668.48 210.289 1688.83 216.939 1704.03 230.281C1719.23 243.579 1727.58 261.536 1729.12 284.154H1677.36C1676.58 275.26 1673.06 268.229 1666.74 262.976C1660.45 257.726 1651.98 255.099 1641.44 255.099C1631.63 255.099 1624.13 256.963 1618.86 260.732C1613.59 264.501 1610.92 269.754 1610.92 276.487C1610.92 284.028 1614.53 289.745 1621.74 293.642C1628.96 297.537 1640.14 301.519 1655.34 305.542C1670.79 309.567 1683.56 313.759 1693.57 318.038C1703.62 322.358 1712.3 329.007 1719.63 338.029C1726.97 347.049 1730.78 358.951 1731.02 373.774C1731.02 386.693 1727.62 398.254 1720.81 408.462C1713.96 418.712 1704.19 426.717 1691.46 432.477C1678.73 438.28 1663.86 441.16 1646.83 441.16C1629.81 441.16 1613.59 437.855 1599.69 431.29H1599.81Z" fill="white"/>
<path d="M1708.24 178.568H1727.86V184.921H1721.94V205.801H1714.16L1714.24 184.921H1708.24V178.568ZM1764.95 178.568V205.801H1757.78L1757.61 188.733L1750.88 205.801H1745.62L1738.89 188.097V205.801H1731.91V178.568H1742.21L1748.49 196.06L1755.3 178.568H1764.91H1764.95Z" fill="white"/>
</g>
<path d="M1978.05 155.643C2039.91 155.643 2089.08 186.97 2106.93 242.486H2043.08C2030.39 219.09 2007.39 206.797 1978.05 206.797C1928.48 206.797 1893.98 242.089 1893.98 297.209C1893.98 353.519 1928.88 388.415 1980.43 388.415C2023.26 388.415 2050.62 363.829 2058.94 324.571H1963.77V282.141H2113.67V330.519C2102.56 386.828 2052.2 438.379 1978.45 438.379C1897.95 438.379 1836.88 380.087 1836.88 297.209C1836.88 214.331 1897.95 155.643 1978.05 155.643ZM2202.33 326.554V436H2146.81V216.314H2202.33V250.417C2216.21 227.814 2239.2 213.142 2269.74 213.142V271.434H2255.07C2222.15 271.434 2202.33 284.123 2202.33 326.554ZM2511.35 326.157C2511.35 395.156 2460.59 439.569 2396.75 439.569C2333.3 439.569 2285.32 395.156 2285.32 326.157C2285.32 256.762 2334.89 212.745 2398.34 212.745C2461.78 212.745 2511.35 256.762 2511.35 326.157ZM2341.63 326.157C2341.63 369.777 2367.01 391.19 2396.75 391.19C2426.1 391.19 2454.25 369.777 2454.25 326.157C2454.25 282.141 2426.89 261.124 2397.54 261.124C2368.2 261.124 2341.63 282.141 2341.63 326.157ZM2584.2 436L2519.56 216.314H2575.87L2614.73 383.656L2656.76 216.314H2715.45L2756.69 383.26L2795.55 216.314H2848.69L2784.45 436H2724.57L2684.52 282.537L2644.47 436H2584.2ZM2879.52 367.794V261.917H2853.35V216.314H2879.52V161.987H2935.44V216.314H2984.61V261.917H2935.44V368.191C2935.44 382.863 2941.38 389.208 2958.83 389.208H2984.61V436H2949.71C2907.68 436 2879.52 418.155 2879.52 367.794ZM3016.61 436V142.557H3072.12V243.676C3086.4 225.038 3110.98 213.142 3140.33 213.142C3189.9 213.142 3225.98 246.451 3225.98 307.123V436H3170.47V314.657C3170.47 279.365 3151.04 260.331 3121.69 260.331C3091.55 260.331 3072.12 279.365 3072.12 314.657V436H3016.61ZM3305.85 436V159.212H3361.37V436H3305.85ZM3562.15 436V314.657C3562.15 279.365 3542.72 260.331 3513.37 260.331C3483.23 260.331 3463.8 279.365 3463.8 314.657V436H3408.29V216.314H3463.8V243.676C3478.08 225.038 3501.87 213.142 3530.03 213.142C3581.18 213.142 3617.66 246.451 3617.66 307.123V436H3562.15ZM3671.25 367.794V261.917H3645.08V216.314H3671.25V161.987H3727.16V216.314H3776.33V261.917H3727.16V368.191C3727.16 382.863 3733.11 389.208 3750.56 389.208H3776.33V436H3741.44C3699.4 436 3671.25 418.155 3671.25 367.794ZM3902.71 258.348C3876.14 258.348 3855.13 275.399 3850.76 305.537H3955.06C3954.26 276.589 3931.26 258.348 3902.71 258.348ZM4007 367.001C3995.11 407.449 3958.62 439.569 3904.3 439.569C3840.45 439.569 3794.06 395.156 3794.06 326.157C3794.06 256.762 3839.26 212.745 3904.3 212.745C3967.74 212.745 4012.55 255.969 4012.55 321.398C4012.55 328.536 4012.16 335.674 4010.97 342.812H3850.37C3853.14 375.329 3875.35 393.57 3903.11 393.57C3926.9 393.57 3939.99 381.673 3947.12 367.001H4007ZM4045.15 436V142.557H4100.66V436H4045.15ZM4147.58 436V142.557H4203.1V436H4147.58ZM4250.02 436V216.314H4305.53V436H4250.02ZM4278.17 190.142C4258.34 190.142 4244.07 175.866 4244.07 157.625C4244.07 139.384 4258.34 125.109 4278.17 125.109C4297.6 125.109 4312.27 139.384 4312.27 157.625C4312.27 175.866 4297.6 190.142 4278.17 190.142ZM4338.18 325.364C4338.18 256.762 4382.59 212.745 4438.5 212.745C4473 212.745 4497.98 228.607 4511.07 247.641V216.314H4566.98V437.586C4566.98 497.068 4530.5 544.257 4458.33 544.257C4396.47 544.257 4353.25 513.326 4347.69 462.965H4402.81C4408.36 482.792 4428.99 495.878 4456.74 495.878C4487.28 495.878 4511.07 478.43 4511.07 437.586V403.483C4497.98 422.517 4473 439.569 4438.5 439.569C4382.59 439.569 4338.18 393.966 4338.18 325.364ZM4511.07 326.157C4511.07 284.52 4483.31 261.52 4452.78 261.52C4423.04 261.52 4394.88 283.727 4394.88 325.364C4394.88 367.001 4423.04 390.794 4452.78 390.794C4483.31 390.794 4511.07 367.794 4511.07 326.157ZM4707.65 258.348C4681.08 258.348 4660.07 275.399 4655.7 305.537H4759.99C4759.2 276.589 4736.2 258.348 4707.65 258.348ZM4811.94 367.001C4800.05 407.449 4763.56 439.569 4709.24 439.569C4645.39 439.569 4599 395.156 4599 326.157C4599 256.762 4644.2 212.745 4709.24 212.745C4772.68 212.745 4817.49 255.969 4817.49 321.398C4817.49 328.536 4817.1 335.674 4815.91 342.812H4655.31C4658.08 375.329 4680.29 393.57 4708.05 393.57C4731.84 393.57 4744.93 381.673 4752.06 367.001H4811.94ZM5003.94 436V314.657C5003.94 279.365 4984.51 260.331 4955.17 260.331C4925.03 260.331 4905.6 279.365 4905.6 314.657V436H4850.08V216.314H4905.6V243.676C4919.88 225.038 4943.67 213.142 4971.82 213.142C5022.98 213.142 5059.46 246.451 5059.46 307.123V436H5003.94ZM5090.05 326.157C5090.05 257.158 5135.25 212.745 5198.7 212.745C5253.42 212.745 5290.3 241.296 5302.2 290.468H5242.32C5235.98 271.83 5221.3 259.934 5198.3 259.934C5167.37 259.934 5146.75 283.33 5146.75 326.157C5146.75 368.984 5167.37 391.984 5198.3 391.984C5221.3 391.984 5235.58 381.673 5242.32 361.846H5302.2C5290.3 408.638 5253.42 439.569 5198.7 439.569C5135.25 439.569 5090.05 395.156 5090.05 326.157ZM5429.32 258.348C5402.75 258.348 5381.73 275.399 5377.37 305.537H5481.66C5480.87 276.589 5457.87 258.348 5429.32 258.348ZM5533.61 367.001C5521.71 407.449 5485.23 439.569 5430.9 439.569C5367.06 439.569 5320.66 395.156 5320.66 326.157C5320.66 256.762 5365.87 212.745 5430.9 212.745C5494.35 212.745 5539.16 255.969 5539.16 321.398C5539.16 328.536 5538.76 335.674 5537.57 342.812H5376.97C5379.75 375.329 5401.95 393.57 5429.71 393.57C5453.51 393.57 5466.59 381.673 5473.73 367.001H5533.61Z" fill="url(#paint0_linear_45_1807)"/>
</g>
<defs>
<linearGradient id="paint0_linear_45_1807" x1="1823" y1="297.5" x2="5553" y2="297.5" gradientUnits="userSpaceOnUse">
<stop stop-color="#00FF77"/>
<stop offset="1" stop-color="#8AFFC0"/>
</linearGradient>
<clipPath id="clip0_45_1807">
<rect width="5553" height="595" fill="white"/>
</clipPath>
</defs>
</svg>
